<svg width="192" height="317" viewBox="0 0 192 317" fill="none" xmlns="http://www.w3.org/2000/svg">
<path d="M66.7234 81.5974C84.6235 72.1937 91.5468 50.1159 82.1871 32.2852C72.8274 14.4545 50.729 7.62311 32.8289 17.0268C14.9289 26.4305 8.00551 48.5083 17.3652 66.339C26.7249 84.1697 48.8233 91.0011 66.7234 81.5974Z" fill="black"/>
<path d="M33.1043 41.2352C34.8271 38.8849 37.3722 37.4356 40.2697 37.1223C42.4624 36.8872 44.4985 37.3573 46.4171 38.5324C47.396 39.12 48.2574 39.8642 49.0796 40.7652C49.667 39.7075 50.3718 38.7674 51.194 37.984C52.7994 36.4172 54.718 35.5162 56.8715 35.2812C59.769 34.9678 62.5882 35.8296 64.7809 37.749C66.9344 39.6292 68.3049 42.3712 68.6573 45.4657C69.0097 48.6385 68.1482 51.6939 65.9555 55.0626C63.9978 58.0787 61.022 61.2124 57.5763 64.8945C56.4017 66.1479 55.0704 67.5581 53.7 69.0466C53.3476 69.4383 52.8386 69.7125 52.2904 69.7517C51.7422 69.83 51.2332 69.6733 50.7633 69.36C49.0796 68.1848 47.4743 67.0881 46.0647 66.1479C41.9142 63.3276 38.3119 60.899 35.7277 58.3921C32.8302 55.611 31.3423 52.7906 30.9899 49.6178C30.6767 46.5233 31.4206 43.5463 33.1043 41.2352Z" fill="white"/>
<path d="M168.272 83.5925C181.377 70.4829 181.377 49.2281 168.272 36.1185C155.168 23.0089 133.922 23.0089 120.817 36.1185C107.713 49.228 107.713 70.4829 120.817 83.5925C133.922 96.7021 155.168 96.7021 168.272 83.5925Z" fill="#B9FF66"/>
<path d="M144.539 94.2732C125.587 94.2732 110.121 78.8399 110.121 59.8419C110.121 40.8832 125.548 25.4106 144.539 25.4106C163.529 25.4106 178.956 40.844 178.956 59.8419C178.956 78.8007 163.529 94.2732 144.539 94.2732ZM144.539 27.1342C126.527 27.1342 111.844 41.7841 111.844 59.8419C111.844 77.8606 126.488 92.5497 144.539 92.5497C162.55 92.5497 177.233 77.8998 177.233 59.8419C177.233 41.8233 162.589 27.1342 144.539 27.1342Z" fill="#B9FF66"/>
<path d="M153.622 63.1713C151.743 63.1713 150.098 64.0723 149.002 65.4824L137.686 61.0561C137.686 60.8994 137.725 60.7819 137.725 60.6252C137.725 60.351 137.686 60.0768 137.647 59.8026L149.237 54.4362C150.294 55.6505 151.86 56.4339 153.622 56.4731C156.833 56.4731 159.495 53.8486 159.495 50.5974C159.495 47.3462 156.872 44.6826 153.622 44.6826C150.411 44.6826 147.749 47.3071 147.749 50.5583C147.749 50.8325 147.788 51.1067 147.827 51.3809L136.237 56.7473C135.18 55.533 133.614 54.7496 131.852 54.7104C128.641 54.7104 125.979 57.3348 125.979 60.586C125.979 63.8372 128.602 66.5009 131.852 66.5009C133.731 66.5009 135.376 65.5999 136.472 64.1898L147.788 68.6161C147.788 68.7728 147.749 68.8903 147.749 69.047C147.749 72.2982 150.372 74.9618 153.622 74.9618C156.833 74.9618 159.495 72.3373 159.495 69.0861C159.456 65.8349 156.833 63.2105 153.622 63.1713Z" fill="black"/>
<path d="M154.067 189.993C169.433 179.322 173.294 158.283 162.69 142.999C152.085 127.715 131.032 123.975 115.665 134.645C100.299 145.315 96.4382 166.355 107.042 181.639C117.647 196.923 138.7 200.663 154.067 189.993Z" fill="black"/>
<path d="M126.411 178.373L121.478 151.619C121.243 150.248 122.496 149.112 123.827 149.465L152.998 157.73C154.486 158.161 154.838 160.08 153.624 161.02L129.348 179.509C128.291 180.371 126.685 179.783 126.411 178.373Z" fill="white"/>
<path d="M134.535 299.582C153.512 290.34 161.452 267.553 152.271 248.686C143.09 229.819 120.264 222.016 101.287 231.258C82.311 240.499 74.3706 263.286 83.5518 282.153C92.7331 301.02 115.559 308.823 134.535 299.582Z" fill="#B9FF66"/>
<path d="M117.718 304.347C113.646 304.347 109.495 303.72 105.462 302.349C95.595 299.059 87.6074 292.165 82.987 282.842C78.3667 273.559 77.6619 263.022 80.9901 253.151C87.8815 232.821 110.043 221.735 130.443 228.512C140.31 231.802 148.298 238.696 152.918 248.019C157.539 257.303 158.243 267.84 154.915 277.711C149.355 294.006 134.045 304.347 117.718 304.347ZM118.109 228.277C102.486 228.277 87.8423 238.148 82.5563 253.738C79.3848 263.178 80.0504 273.245 84.4749 282.098C88.8995 290.99 96.5348 297.61 105.971 300.743C125.47 307.206 146.653 296.63 153.232 277.202C156.403 267.761 155.737 257.694 151.313 248.842C146.888 239.95 139.253 233.33 129.817 230.196C125.94 228.865 121.986 228.277 118.109 228.277Z" fill="black"/>
<path d="M137.375 259.261C136.983 268.78 120.891 291.029 117.053 296.239C116.662 296.787 115.84 296.748 115.487 296.16C113.06 292.243 105.033 279.082 100.843 268.427C99.1595 264.197 98.1024 260.358 98.2198 257.655C98.6505 246.844 107.774 238.422 118.581 238.853C129.387 239.362 137.806 248.45 137.375 259.261Z" fill="black"/>
<path d="M124.13 264.827C127.632 261.324 127.632 255.644 124.13 252.141C120.628 248.638 114.951 248.638 111.45 252.141C107.948 255.644 107.948 261.324 111.45 264.827C114.951 268.33 120.628 268.33 124.13 264.827Z" fill="#B9FF66"/>
</svg>
