<svg width="199" height="209" viewBox="0 0 199 209" fill="none" xmlns="http://www.w3.org/2000/svg">
<path d="M111.343 66.6289L111.511 67.5342L112.179 66.9004L159.312 22.1758L131.341 80.8232L130.944 81.6543L131.857 81.5342L196.277 73.0547L139.177 104.061L138.367 104.5L139.177 104.939L196.277 135.944L131.857 127.466L130.944 127.346L131.341 128.177L159.312 186.823L112.179 142.1L111.511 141.466L111.343 142.371L99.5 206.259L87.6572 142.371L87.4893 141.466L86.8213 142.1L39.6875 186.823L67.6592 128.177L68.0557 127.346L67.1426 127.466L2.72168 135.944L59.8232 104.939L60.6328 104.5L59.8232 104.061L2.72168 73.0547L67.1426 81.5342L68.0557 81.6543L67.6592 80.8232L39.6875 22.1758L86.8213 66.9004L87.4893 67.5342L87.6572 66.6289L99.5 2.74023L111.343 66.6289Z" stroke="black"/>
</svg>
